<?xml version="1.0" encoding="UTF-8"?>
<svg width="312px" height="76px" viewBox="0 0 312 76" version="1.1" xmlns="http://www.w3.org/2000/svg" xmlns:xlink="http://www.w3.org/1999/xlink">
    <!-- Generator: Sketch 46.2 (44496) - http://www.bohemiancoding.com/sketch -->
    <title>ss-logo</title>
    <desc>Created with Sketch.</desc>
    <defs>
        <path d="M303.729457,13.0232558 C302.698609,11.8767067 301.233997,11.2152693 299.692248,11.2 C298.801148,11.2013622 297.925818,11.4351578 297.152713,11.8782946 C297.060465,5.28527132 292.01938,0.868217054 284.547287,0.868217054 C281.660465,0.868217054 279.337984,2.19224806 278.344961,4.40620155 C277.580413,6.18492216 277.72606,8.22397319 278.735659,9.87596899 C276.027442,9.0185611 273.213155,8.54190373 270.373643,8.45968992 C264.068217,8.45968992 257.648837,11.3573643 255.44031,15.2046512 C253.99996,17.6784271 254.557469,20.8307623 256.758915,22.6604651 C256.034906,23.2085477 255.341125,23.7954543 254.68062,24.4186047 C252.754264,21.0976744 249.086047,19.0356589 244.473643,19.0356589 C240.463566,19.0356589 235.693798,21 231.81938,24.5651163 C230.527907,19.5077519 227.217829,18.2922481 224.34186,18.2922481 C221.851998,18.3488115 219.49591,19.4306487 217.830233,21.2821705 C216.15246,19.7584147 213.964872,18.918226 211.69845,18.9271318 C209.441085,18.9271318 205.789147,20.0124031 203.678295,22.1829457 C201.691629,20.0647183 198.903747,18.8825776 196,18.9271318 C195.526291,18.9290064 195.053203,18.9616331 194.583721,19.0248062 C194.948996,17.8197915 195.1319,16.5669008 195.126357,15.3077519 C195.169767,8.96434109 189.379845,0 176.470543,0 C165.503876,0 156.213953,8.94806202 156.213953,19.5348837 C156.254319,22.7937201 157.132611,25.9873395 158.764341,28.8085271 C157.092827,28.2288561 155.335045,27.9371156 153.565891,27.9457364 C145.730732,27.9485018 138.720583,32.8151586 135.97907,40.1550388 C135.367308,39.7804943 134.686288,39.533186 133.976744,39.427907 C135.935659,34.8806202 137.297674,31.3263566 137.628682,28.624031 C137.870629,26.2100152 137.082431,23.8060103 135.45814,22.003876 L135.322481,21.8682171 C138.276822,19.8929014 139.729037,16.3165327 138.988164,12.8407432 C138.247291,9.36495363 135.462936,6.69162072 131.959892,6.09271323 C128.456848,5.49380574 124.942496,7.09026299 123.088962,10.1224924 C121.235427,13.1547218 121.416999,17.0104155 123.547287,19.8550388 C122.426607,20.2745757 121.38463,20.8799495 120.465116,21.6457364 C118.817669,19.8892488 116.496337,18.9231797 114.089147,18.9922481 C111.414603,19.0274955 108.785287,19.6871473 106.410853,20.9186047 C104.654141,19.3522495 102.377567,18.4953911 100.024031,18.5147287 C97.3266903,18.532775 94.6737375,19.2029947 92.2914729,20.4682171 C90.4973308,19.2742897 88.3851912,18.6484006 86.2302326,18.672093 C83.3644353,18.6008968 80.5520083,19.4552809 78.2100775,21.1085271 C77.7941413,21.4117124 77.4279915,21.7778622 77.1248062,22.1937984 C75.0627907,20.224031 72.1325581,19.0736434 68.6813953,19.0736434 C65.3333333,19.0736434 61.4589147,20.4356589 58.0186047,22.9589147 C59.7282682,20.7976815 60.6490541,18.1176395 60.6286822,15.3620155 C60.6612403,8.96434109 54.8604651,0 41.9620155,0 C30.9844961,0 21.7054264,8.94806202 21.7054264,19.5348837 C21.7457915,22.7937201 22.6240835,25.9873395 24.255814,28.8085271 C22.5911794,28.2312745 20.8409411,27.9395681 19.0790698,27.9457364 C8.42713178,27.9457364 0.0868217054,36.627907 0.0868217054,47.6868217 C0.0868217054,58.4418605 8.83410853,69.8697674 25.048062,69.8697674 C41.9403101,69.8697674 50.4705426,62.3217054 53.5310078,53.8403101 L53.8131783,54.0899225 C56.2387597,56.1139535 59.4457364,57.1829457 63.0813953,57.1829457 C65.8434109,57.1829457 69.1100775,55.9782946 72.2790698,54.3124031 L72.327907,54.3775194 C73.879845,56.2333333 76.3434109,57.2100775 79.4581395,57.2100775 L79.5775194,57.2100775 C81.6806785,57.1395404 83.7648828,56.7873062 85.7744186,56.1627907 C86.2348538,56.02166 86.6718826,55.8132028 87.0713178,55.544186 C88.5923914,57.1702553 90.7448099,58.0553804 92.9697674,57.9697674 C95.3938735,57.9910594 97.7959944,57.5087875 100.024031,56.5534884 C100.49415,56.3422698 100.928132,56.0584418 101.310078,55.7124031 C102.879468,57.2032439 104.973823,58.0144651 107.137984,57.9697674 C110.346553,57.916797 113.48124,56.9981388 116.210853,55.3108527 C118.006977,57.020155 120.492248,57.9697674 123.520155,57.9697674 C128.002326,57.9697674 132.327132,55.6147287 135.197674,52.5434109 C137.417054,61.6108527 145.800775,69.8426357 159.562016,69.8426357 C175.678295,69.8426357 184.181395,62.9728682 187.589147,54.979845 C189.559803,56.341446 191.912538,57.0408048 194.306977,56.9767442 C197.272455,57.0010953 200.188249,56.2149189 202.739535,54.7031008 C204.83196,56.2296053 207.367032,57.0282481 209.956589,56.9767442 C216.94031,56.9767442 222.100775,53.2976744 225.693023,48.4844961 C226.46565,50.6643237 227.804815,52.5990881 229.572868,54.0899225 C231.99845,56.1139535 235.205426,57.1829457 238.841085,57.1829457 C242.476744,57.1829457 246.882946,55.1426357 250.855039,52.7007752 C253.144961,55.3054264 256.824031,57.1829457 262.608527,57.1829457 C266.200775,57.1829457 270.465891,55.3217054 274.22093,53.0968992 C275.848837,55.0286822 278.703101,57.1829457 283.445736,57.1829457 C288.470543,57.1829457 295.253488,55.3651163 299.035659,46.7100775 L299.127907,46.4984496 C300.446512,43.6007752 300.082946,41.4953488 299.551163,40.2364341 C298.904564,38.7222032 297.646547,37.5529181 296.089147,37.0186047 C295.519674,36.8149445 294.919523,36.7103312 294.314729,36.7093023 C291.975969,36.7093023 290.407752,38.0984496 289.181395,39.6232558 C289.794574,37.3333333 290.96124,34.1317829 292.095349,31.0062016 L292.399225,30.1651163 C292.686822,30.1651163 292.979845,30.1651163 293.278295,30.1651163 C301.227907,30.1651163 305.37907,23.7891473 305.682946,19.4806202 C305.878295,16.8868217 305.183721,14.5914729 303.729457,13.0232558 Z" id="path-1"></path>
    </defs>
    <g id="Page-1" stroke="none" stroke-width="1" fill="none" fill-rule="evenodd">
        <g id="Home-Page" transform="translate(-117.000000, -85.000000)" fill-rule="nonzero">
            <g id="ss-logo" transform="translate(120.000000, 88.000000)">
                <g id="new_logo">
                    <path d="M76.0612403,30.1868217 C76.0612403,36.627907 58.9465116,43.2100775 58.9465116,43.2100775 L58.8813953,39.275969 C66.2069767,39.275969 75.0899225,27.7449612 68.5837209,27.7449612 C65.4852713,27.7449612 61.6596899,34.6689922 61.6,39.275969 C61.5348837,44.2844961 62.755814,47.0085271 65.5341085,47.0085271 C72.4527132,47.0085271 82.5620155,37.1054264 82.5620155,37.1054264 C82.5620155,37.1054264 82.6325581,40.9744186 81.6829457,42.2604651 C80.7333333,43.5465116 69.2348837,52.8418605 63.0976744,52.8418605 C59.0984496,52.8418605 53.1294574,51.1488372 53.1294574,41.2457364 C53.1294574,30.3930233 62.4248062,23.4093023 68.7302326,23.4093023 C73.3534884,23.403876 76.0612403,26.1007752 76.0612403,30.1868217 Z" id="Shape" fill="#FF5352"></path>
                    <path d="M251.826357,30.1868217 C251.826357,37.3062016 234.711628,43.2100775 234.711628,43.2100775 L234.646512,39.275969 C241.972093,39.275969 249.796899,27.7449612 244.348837,27.7449612 C241.478295,27.7449612 237.424806,34.6689922 237.365116,39.275969 C237.3,44.2844961 238.52093,47.0085271 241.299225,47.0085271 C248.217829,47.0085271 258.327132,37.1054264 258.327132,37.1054264 C258.327132,37.1054264 258.397674,40.9744186 257.448062,42.2604651 C256.49845,43.5465116 245,52.8418605 238.862791,52.8418605 C234.863566,52.8418605 228.894574,51.1488372 228.894574,41.2457364 C228.894574,30.3930233 238.189922,23.4093023 244.495349,23.4093023 C249.118605,23.403876 251.826357,26.1007752 251.826357,30.1868217 Z" id="Shape" fill="#FF5352"></path>
                    <path d="M274.644186,29.4379845 C274.644186,36.3131783 257.909302,42.7813953 257.909302,42.7813953 L257.323256,38.7333333 C264.648837,38.7333333 272.810078,27.7449612 267.568217,27.7449612 C260.231783,27.7449612 257.936434,47.5511628 264.518605,47.5511628 C271.437209,47.5511628 281.003876,38.1906977 281.003876,38.1906977 C281.003876,38.1906977 281.074419,42.0596899 280.124806,43.3457364 C279.175194,44.6317829 268.762016,52.8418605 262.624806,52.8418605 C258.625581,52.8418605 251.571318,52.0984496 251.571318,41.2457364 C251.571318,30.3930233 261.409302,22.8666667 267.714729,22.8666667 C272.343411,22.8612403 274.644186,25.351938 274.644186,29.4379845 Z" id="Shape" fill="#FF5352"></path>
                    <path d="M86.2356589,23.0186047 C89.1767442,23.0186047 92.0472868,24.7496124 91.7542636,28.3093023 C91.1627907,35.3581395 85.1937984,41.7069767 84.8953488,51.5015504 C84.8897682,51.7337184 84.7370631,51.9365981 84.5155039,52.0062016 C82.9011521,52.5070083 81.228401,52.795225 79.5395349,52.8635659 C77.227907,52.8635659 74.6178295,52.1255814 75.1550388,49.151938 C75.4209302,47.6705426 82.8875969,30.7023256 82.844186,28.2170543 C82.813565,27.0592096 82.0398653,26.0531808 80.9286822,25.7263566 C80.7226584,25.638094 80.5777821,25.4485312 80.5467064,25.2265619 C80.5156307,25.0045925 80.6028797,24.7825322 80.7767442,24.6410853 C82.3742391,23.5266295 84.288795,22.9575915 86.2356589,23.0186047 Z" id="Shape" fill="#FF5352"></path>
                    <path d="M100.024031,22.8612403 C103.686822,22.8612403 105.705426,26.2255814 104.951163,28.5372093 C102.351938,36.4976744 99.0744186,42.8248062 98.303876,48.4790698 C98.1164678,49.6357615 98.1962834,50.8200023 98.5372093,51.9410853 C98.6193532,52.2025415 98.4936505,52.4842087 98.244186,52.5976744 C96.5763184,53.3031391 94.7805638,53.6560086 92.9697674,53.6341085 C89.3992248,53.6341085 89.1713178,50.4596899 89.3992248,48.9782946 C89.7627907,46.3085271 95.2705426,32.9379845 96.0899225,29.644186 C96.3178295,28.7271318 95.7046512,28.3906977 95.0860465,28.5589147 C93.1488372,29.0310078 88.6775194,32.1674419 88.6775194,32.1674419 L89.0844961,28.548062 C89.0844961,28.548062 93.4255814,22.8612403 100.024031,22.8612403 Z" id="Shape" fill="#FF5352"></path>
                    <path d="M114.089147,23.3333333 C117.751938,23.3333333 118.717829,26.5023256 118.500775,28.6565891 C118.066667,32.8945736 113.839535,40.675969 112.23876,44.8542636 C111.354264,47.1658915 111.951163,48.1100775 112.824806,48.1100775 C114.702326,48.1100775 117.616279,45.1689922 121.045736,41.4085271 L119.721705,46.596124 C119.721705,46.596124 114.409302,53.6503876 107.137984,53.6503876 C103.567442,53.6503876 103.024806,50.4922481 103.024806,48.9945736 C103.024806,44.479845 108.483721,34.4899225 110.030233,30.5069767 C110.208751,30.1628906 110.17564,29.7471613 109.944906,29.4356709 C109.714173,29.1241805 109.326135,28.9713591 108.944961,29.0418605 C106.096124,29.3511628 101.217829,33.7953488 101.217829,33.7953488 L102.167442,29.6333333 C102.167442,29.6333333 107.485271,23.3333333 114.089147,23.3333333 Z" id="Shape" fill="#FF5352"></path>
                    <path d="M128.675194,23.3333333 C131.458915,23.3333333 133.558915,26.0465116 133.320155,28.1085271 C132.744961,32.8294574 126.895349,43.9317829 126.027132,47.2744186 C125.560465,49.0705426 125.815504,49.8736434 127.182946,49.244186 C129.017054,48.3976744 130.644961,46.596124 132.066667,44.496124 C132.913178,43.2426357 134.318605,43.5356589 134.318605,45.3100775 C134.318605,48.0937984 129.179845,53.6286822 123.520155,53.6286822 C118.94031,53.6286822 117.350388,50.6550388 117.350388,46.7317829 C117.350388,42.8085271 123.210853,32.2868217 124.605426,28.2170543 C124.94186,27.2403101 124.54031,26.3883721 123.927132,26.3178295 L123.031783,26.2093023 C122.866637,26.1905589 122.725704,26.0813373 122.666345,25.9260919 C122.606987,25.7708464 122.639099,25.5954605 122.749612,25.4713178 C123.471318,24.651938 125.169767,23.3333333 128.675194,23.3333333 Z" id="Shape" fill="#FF5352"></path>
                    <circle id="Oval" fill="#FF5352" cx="130.503876" cy="14.6511628" r="4.35736434"></circle>
                    <path d="M196.027132,23.2899225 C199.418605,23.2899225 201.632558,25.596124 201.632558,27.9945736 C201.632558,31.7930233 195.755814,39.7534884 195.755814,45.4511628 C195.755814,49.2930233 197.655039,50.8341085 204.074419,44.2736434 C204.926357,43.4054264 204.573643,46.9 204.573643,46.9 C202.434959,50.522189 198.512708,52.7134253 194.306977,52.6356589 C186.981395,52.6356589 187.203876,45.3968992 187.567442,43.5899225 C188.88062,37.1217054 193.172868,31.1093023 193.172868,29.3457364 C193.212326,28.70552 192.972865,28.0795419 192.516195,27.629113 C192.059525,27.1786842 191.43031,26.9478605 190.790698,26.996124 C189.824806,27.0883721 189.23876,26.3178295 190.052713,25.5472868 C191.767459,24.2033087 193.852087,23.4156565 196.027132,23.2899225 Z" id="Shape" fill="#FF5352"></path>
                    <path d="M211.731008,23.2899225 C215.122481,23.2899225 216.446512,26.127907 216.446512,28.5263566 C216.446512,32.3248062 210.862791,39.7534884 210.862791,45.4511628 C210.862791,47.7248062 212.197674,49.2930233 215.632558,46.672093 C219.637209,43.6224806 225.432558,36.0906977 224.314729,26.051938 C224.17907,24.8418605 228.048062,20.4248062 228.048062,29.6821705 C228.048062,36.1612403 222.713953,52.6410853 209.962016,52.6410853 C203.450388,52.6410853 201.686822,46.579845 202.907752,42.5209302 C204.839535,36.2100775 208.07907,30.8271318 208.594574,29.1395349 C209.066667,27.5821705 208.133333,26.4263566 207.172868,26.3612403 C204.644186,26.1170543 208.811628,23.2899225 211.731008,23.2899225 Z" id="Shape" fill="#FF5352"></path>
                    <path d="M230.348837,37.8162791 C228.313953,37.8162791 222.95814,36.5302326 222.95814,30.4255814 C222.95814,26.8333333 224.314729,26.051938 224.314729,26.051938 L228.048062,29.6821705 C228.048062,24.9666667 226.995349,22.6604651 224.895349,22.6604651 C222.795349,22.6604651 218.86124,25.4062016 218.86124,30.5286822 C218.86124,35.6511628 221.303101,39.9596899 230.35969,39.9596899 C230.348837,39.9542636 232.383721,37.8162791 230.348837,37.8162791 Z" id="Shape" fill="#FF5352"></path>
                    <path d="M284.547287,5.2255814 C288.774419,5.2255814 292.822481,7.05968992 292.822481,12.0790698 C292.822481,19.4046512 285.36124,34.6689922 284.509302,40.8387597 C283.831008,45.7224806 285.155039,48.1860465 287.222481,47.6976744 C290.776744,46.8511628 292.648837,40.3829457 294.662016,41.1046512 C296.078295,41.6093023 295.882946,43.2100775 295.204651,44.7023256 C294.526357,46.1945736 292.084496,52.8418605 283.472868,52.8418605 C274.86124,52.8418605 274.627907,42.8682171 275.729457,38.5271318 C276.342636,36.0852713 283.190698,16.4852713 283.733333,14.0434109 C284.275969,11.6015504 284.075194,9.6372093 282.989922,8.41627907 C281.541085,6.78294574 282.083721,5.2255814 284.547287,5.2255814 Z" id="Shape" fill="#FF5352"></path>
                    <path d="M76.0612403,30.1868217 C76.0612403,36.627907 58.9465116,43.2100775 58.9465116,43.2100775 L58.8813953,39.275969 C66.2069767,39.275969 75.0899225,27.7449612 68.5837209,27.7449612 C65.4852713,27.7449612 61.6596899,34.6689922 61.6,39.275969 C61.5348837,44.2844961 62.755814,47.0085271 65.5341085,47.0085271 C72.4527132,47.0085271 82.5620155,37.1054264 82.5620155,37.1054264 C82.5620155,37.1054264 82.6325581,40.9744186 81.6829457,42.2604651 C80.7333333,43.5465116 69.2348837,52.8418605 63.0976744,52.8418605 C59.0984496,52.8418605 53.1294574,51.1488372 53.1294574,41.2457364 C53.1294574,30.3930233 62.4248062,23.4093023 68.7302326,23.4093023 C73.3534884,23.403876 76.0612403,26.1007752 76.0612403,30.1868217 Z" id="Shape" fill="#FF5352"></path>
                    <path d="M251.826357,30.1868217 C251.826357,37.3062016 234.711628,43.6821705 234.711628,43.6821705 L234.646512,39.275969 C241.972093,39.275969 249.796899,27.7449612 244.348837,27.7449612 C241.478295,27.7449612 237.424806,34.6689922 237.365116,39.275969 C237.3,44.2844961 238.52093,47.0085271 241.299225,47.0085271 C248.217829,47.0085271 258.327132,37.1054264 258.327132,37.1054264 C258.327132,37.1054264 258.397674,40.9744186 257.448062,42.2604651 C256.49845,43.5465116 245,52.8418605 238.862791,52.8418605 C234.863566,52.8418605 228.894574,51.1488372 228.894574,41.2457364 C228.894574,30.3930233 238.189922,23.4093023 244.495349,23.4093023 C249.118605,23.403876 251.826357,26.1007752 251.826357,30.1868217 Z" id="Shape" fill="#FF5352"></path>
                    <path d="M274.644186,29.4379845 C274.644186,36.3131783 258.451938,42.8682171 258.451938,42.8682171 L257.323256,38.7333333 C264.648837,38.7333333 272.810078,27.7449612 267.568217,27.7449612 C260.231783,27.7449612 257.936434,47.5511628 264.518605,47.5511628 C271.437209,47.5511628 281.003876,38.1906977 281.003876,38.1906977 C281.003876,38.1906977 281.074419,42.0596899 280.124806,43.3457364 C279.175194,44.6317829 268.762016,52.8418605 262.624806,52.8418605 C258.625581,52.8418605 251.571318,52.0984496 251.571318,41.2457364 C251.571318,30.3930233 261.409302,22.8666667 267.714729,22.8666667 C272.343411,22.8612403 274.644186,25.351938 274.644186,29.4379845 Z" id="Shape" fill="#FF5352"></path>
                    <path d="M86.2356589,23.0186047 C89.1767442,23.0186047 92.0472868,24.7496124 91.7542636,28.3093023 C91.1627907,35.3581395 85.1937984,41.7069767 84.8953488,51.5015504 C84.8897682,51.7337184 84.7370631,51.9365981 84.5155039,52.0062016 C82.9011521,52.5070083 81.228401,52.795225 79.5395349,52.8635659 C77.227907,52.8635659 74.6178295,52.1255814 75.1550388,49.151938 C75.4209302,47.6705426 82.8875969,30.7023256 82.844186,28.2170543 C82.813565,27.0592096 82.0398653,26.0531808 80.9286822,25.7263566 C80.7226584,25.638094 80.5777821,25.4485312 80.5467064,25.2265619 C80.5156307,25.0045925 80.6028797,24.7825322 80.7767442,24.6410853 C82.3742391,23.5266295 84.288795,22.9575915 86.2356589,23.0186047 Z" id="Shape" fill="#FF5352"></path>
                    <path d="M100.024031,22.8612403 C103.686822,22.8612403 105.705426,26.2255814 104.951163,28.5372093 C102.351938,36.4976744 99.0744186,42.8248062 98.303876,48.4790698 C98.1164678,49.6357615 98.1962834,50.8200023 98.5372093,51.9410853 C98.6193532,52.2025415 98.4936505,52.4842087 98.244186,52.5976744 C96.5763184,53.3031391 94.7805638,53.6560086 92.9697674,53.6341085 C89.3992248,53.6341085 89.1713178,50.4596899 89.3992248,48.9782946 C89.7627907,46.3085271 95.2705426,32.9379845 96.0899225,29.644186 C96.3178295,28.7271318 95.7046512,28.3906977 95.0860465,28.5589147 C93.1488372,29.0310078 88.6775194,32.1674419 88.6775194,32.1674419 L89.0844961,28.548062 C89.0844961,28.548062 93.4255814,22.8612403 100.024031,22.8612403 Z" id="Shape" fill="#FF5352"></path>
                    <path d="M114.089147,23.3333333 C117.751938,23.3333333 118.717829,26.5023256 118.500775,28.6565891 C118.066667,32.8945736 113.839535,40.675969 112.23876,44.8542636 C111.354264,47.1658915 111.951163,48.1100775 112.824806,48.1100775 C114.702326,48.1100775 117.616279,45.1689922 121.045736,41.4085271 L119.721705,46.596124 C119.721705,46.596124 114.409302,53.6503876 107.137984,53.6503876 C103.567442,53.6503876 103.024806,50.4922481 103.024806,48.9945736 C103.024806,44.479845 108.483721,34.4899225 110.030233,30.5069767 C110.208751,30.1628906 110.17564,29.7471613 109.944906,29.4356709 C109.714173,29.1241805 109.326135,28.9713591 108.944961,29.0418605 C106.096124,29.3511628 101.217829,33.7953488 101.217829,33.7953488 L102.167442,29.6333333 C102.167442,29.6333333 107.485271,23.3333333 114.089147,23.3333333 Z" id="Shape" fill="#FF5352"></path>
                    <path d="M128.675194,23.3333333 C131.795349,23.3333333 133.558915,26.0465116 133.320155,28.1085271 C132.744961,32.8294574 126.895349,43.9317829 126.027132,47.2744186 C125.560465,49.0705426 125.815504,49.8736434 127.182946,49.244186 C129.017054,48.3976744 130.644961,46.596124 132.066667,44.496124 C132.913178,43.2426357 134.318605,43.5356589 134.318605,45.3100775 C134.318605,48.0937984 129.179845,53.6286822 123.520155,53.6286822 C118.94031,53.6286822 117.350388,50.6550388 117.350388,46.7317829 C117.350388,42.8085271 123.210853,32.2868217 124.605426,28.2170543 C124.94186,27.2403101 124.54031,26.3883721 123.927132,26.3178295 L123.031783,26.2093023 C122.866637,26.1905589 122.725704,26.0813373 122.666345,25.9260919 C122.606987,25.7708464 122.639099,25.5954605 122.749612,25.4713178 C123.471318,24.651938 125.169767,23.3333333 128.675194,23.3333333 Z" id="Shape" fill="#FF5352"></path>
                    <circle id="Oval" fill="#FF5352" cx="130.503876" cy="14.6511628" r="4.35736434"></circle>
                    <path d="M176.470543,4.34108527 C167.403101,4.34108527 160.555039,11.8457364 160.555039,19.5348837 C160.555039,29.3023256 171.266667,33.7356589 171.266667,46.6666667 C171.266667,55.8914729 163.539535,58.6968992 157.84186,58.6968992 C151.78062,58.6968992 147.054264,54.7139535 147.054264,47.2093023 C147.054264,40.4100775 150.581395,38.1635659 153.929457,38.1635659 C156.27907,38.1635659 157.277519,40.5131783 157.277519,41.8697674 C157.277519,44.8325581 153.47907,46.5744186 153.47907,50.1015504 C153.47907,53.6286822 155.470543,55.0775194 158.634109,55.0775194 C161.797674,55.0775194 165.867442,51.8217054 165.867442,46.0317829 C165.867442,40.2418605 161.81938,32.2868217 153.565891,32.2868217 C145.312403,32.2868217 138.914729,38.8689922 138.914729,47.6868217 C138.914729,55.9620155 145.741085,65.5286822 159.534884,65.5286822 C179.455039,65.5286822 185.03876,54.2689922 185.03876,46.0372093 C185.03876,30.2573643 170.930233,25.1023256 170.930233,17.0062016 C170.930233,12.0085271 174.3,8.86666667 177.44186,8.86666667 C179.975969,8.86666667 181.148062,10.2232558 181.148062,11.4007752 C181.148062,13.4356589 179.069767,15.1992248 179.069767,17.7333333 C179.090444,20.4728749 181.306195,22.6886257 184.045736,22.7093023 C187.936434,22.7093023 190.806977,19.4100775 190.806977,15.3348837 C190.828682,10.9232558 186.509302,4.34108527 176.470543,4.34108527 Z" id="Shape" fill="#FF5352"></path>
                    <path d="M196.027132,23.2899225 C199.418605,23.2899225 201.632558,25.596124 201.632558,27.9945736 C201.632558,31.7930233 195.755814,39.7534884 195.755814,45.4511628 C195.755814,49.2930233 197.655039,50.8341085 204.074419,44.2736434 C204.926357,43.4054264 204.573643,46.9 204.573643,46.9 C202.434959,50.522189 198.512708,52.7134253 194.306977,52.6356589 C186.981395,52.6356589 187.203876,45.3968992 187.567442,43.5899225 C188.88062,37.1217054 193.172868,31.1093023 193.172868,29.3457364 C193.212326,28.70552 192.972865,28.0795419 192.516195,27.629113 C192.059525,27.1786842 191.43031,26.9478605 190.790698,26.996124 C189.824806,27.0883721 189.23876,26.3178295 190.052713,25.5472868 C191.767459,24.2033087 193.852087,23.4156565 196.027132,23.2899225 Z" id="Shape" fill="#FF5352"></path>
                    <path d="M211.731008,23.2899225 C215.122481,23.2899225 216.446512,26.127907 216.446512,28.5263566 C216.446512,32.3248062 210.862791,39.7534884 210.862791,45.4511628 C210.862791,47.7248062 212.197674,49.2930233 215.632558,46.672093 C219.637209,43.6224806 225.432558,36.0906977 224.314729,26.051938 C224.17907,24.8418605 228.048062,20.4248062 228.048062,29.6821705 C228.048062,36.1612403 222.713953,52.6410853 209.962016,52.6410853 C203.450388,52.6410853 201.686822,46.579845 202.907752,42.5209302 C204.839535,36.2100775 208.07907,30.8271318 208.594574,29.1395349 C209.066667,27.5821705 208.133333,26.4263566 207.172868,26.3612403 C204.644186,26.1170543 208.811628,23.2899225 211.731008,23.2899225 Z" id="Shape" fill="#FF5352"></path>
                    <path d="M230.348837,37.8162791 C228.313953,37.8162791 222.95814,36.5302326 222.95814,30.4255814 C222.95814,26.8333333 224.314729,26.051938 224.314729,26.051938 L228.048062,29.6821705 C228.048062,24.9666667 227.09845,22.6604651 224.352713,22.6604651 C221.856589,22.6604651 218.86124,25.4062016 218.86124,30.5286822 C218.86124,35.6511628 221.303101,39.9596899 230.35969,39.9596899 C230.348837,39.9542636 232.383721,37.8162791 230.348837,37.8162791 Z" id="Shape" fill="#FF5352"></path>
                    <path d="M284.547287,5.2255814 C288.774419,5.2255814 292.822481,7.05968992 292.822481,12.0790698 C292.822481,19.4046512 285.36124,34.6689922 284.509302,40.8387597 C283.831008,45.7224806 285.155039,48.1860465 287.222481,47.6976744 C290.776744,46.8511628 292.648837,40.3829457 294.662016,41.1046512 C296.078295,41.6093023 295.882946,43.2100775 295.204651,44.7023256 C294.526357,46.1945736 292.084496,52.8418605 283.472868,52.8418605 C274.86124,52.8418605 274.627907,42.8682171 275.729457,38.5271318 C276.342636,36.0852713 283.190698,16.4852713 283.733333,14.0434109 C284.275969,11.6015504 284.075194,9.6372093 282.989922,8.41627907 C281.541085,6.78294574 282.083721,5.2255814 284.547287,5.2255814 Z" id="Shape" fill="#FF5352"></path>
                    <g id="Shape">
                        <use fill="#FFFFFF" fill-rule="evenodd" xlink:href="#path-1"></use>
                        <path stroke="#78B6D7" stroke-width="3" d="M304.837106,12.0117122 C306.587005,13.9041176 307.403509,16.6084308 307.179229,19.5861515 C306.745605,25.7343227 301.11734,31.5768831 293.45231,31.6641268 C293.405681,31.7926254 293.388776,31.8392142 293.316198,32.0392387 C293.279817,32.1395232 293.279817,32.1395232 293.243451,32.2397898 C292.771347,33.5415631 292.379911,34.6328048 292.0507,35.5718986 C292.751773,35.3325861 293.501655,35.2093038 294.31728,35.2093045 C295.093369,35.2106247 295.863497,35.3448673 296.575917,35.599783 C298.534912,36.2718758 300.117324,37.7426756 300.932942,39.6527514 C301.812688,41.7354138 301.794681,44.2596748 300.502951,47.0978277 L300.410152,47.310718 C296.917785,55.3025757 290.764467,58.6829457 283.445736,58.6829457 C279.41123,58.6829457 276.271277,57.2976616 273.933709,54.9939756 C269.764663,57.3311182 265.901623,58.6829457 262.608527,58.6829457 C257.414186,58.6829457 253.421279,57.2478004 250.606606,54.5996913 C246.169387,57.2007859 242.197929,58.6829457 238.841085,58.6829457 C234.865383,58.6829457 231.317337,57.4992351 228.605926,55.2366668 C227.285277,54.1230874 226.179207,52.7874054 225.333841,51.2962629 C221.244384,55.8769713 216.07172,58.4767096 209.986417,58.4764476 C207.39524,58.5279837 204.852485,57.8239816 202.664536,56.4609633 C200.086707,57.8061424 197.217642,58.500605 194.347093,58.4762076 C192.222833,58.53304 190.127546,58.0595007 188.24641,57.1106344 C183.701501,65.980235 173.917429,71.3426357 159.562016,71.3426357 C147.208613,71.3426357 137.884809,64.8011458 134.460401,55.2892993 C131.317551,57.8799978 127.388031,59.4697674 123.520155,59.4697674 C120.606127,59.4697674 118.05339,58.6698817 116.04633,57.1390651 C113.320443,58.6162879 110.274244,59.4181938 107.168958,59.4694476 C105.032967,59.5135635 102.954478,58.8526273 101.246408,57.6078432 C101.044247,57.7257899 100.833861,57.8339221 100.615133,57.9321104 C98.1962399,58.9692415 95.5883506,59.4928255 93.0274425,59.4686582 C90.7611521,59.5558617 88.5578142,58.8006186 86.8306165,57.3728416 C86.6306272,57.4574868 86.4266121,57.5317577 86.2195808,57.595212 C84.0819922,58.2595232 81.8649769,58.6342027 79.5775194,58.7100775 L79.4581395,58.7100775 C76.4097794,58.7100775 73.841154,57.8562187 71.9678217,56.1538199 C68.6603844,57.7807029 65.6643474,58.6829457 63.0813953,58.6829457 C59.7356177,58.6829457 56.6927144,57.8446217 54.1803934,56.2166097 C49.8915476,65.5969958 39.9243888,71.3697674 25.048062,71.3697674 C9.36356927,71.3697674 -1.41317829,60.6242468 -1.41317829,47.6868217 C-1.41317829,35.807806 7.58963656,26.4457364 19.0738183,26.4457456 C19.9055307,26.4428338 20.7348777,26.5004897 21.5553807,26.6176336 C20.6954725,24.3674002 20.2355376,21.9722877 20.2054264,19.5348837 C20.2054264,8.10735057 30.167859,-1.5 41.9620155,-1.5 C54.0804614,-1.5 62.1735646,6.5464364 62.1286412,15.3509265 C62.1382319,16.6482191 61.9622354,17.9306076 61.6132293,19.1614838 C63.9859176,18.1288707 66.4152434,17.5736434 68.6813953,17.5736434 C71.8713041,17.5736434 74.7500288,18.4731646 77.0111533,20.14259 C77.1189496,20.0532325 77.2302318,19.9667262 77.3450113,19.8831046 C79.9504246,18.0438573 83.079268,17.0933494 86.213742,17.1721837 C88.3728974,17.1484451 90.4943398,17.6968257 92.3650226,18.7541934 C94.7550064,17.6275002 97.3646406,17.0324877 100.011707,17.0147793 C102.394608,16.9952005 104.709394,17.7511127 106.613396,19.153543 C108.95412,18.0933263 111.489947,17.5263929 114.046126,17.4928651 C116.429469,17.4244809 118.741385,18.2172482 120.570835,19.7001046 C120.836865,19.5238765 121.109684,19.3582283 121.388648,19.2035339 C119.837519,16.1020054 119.956783,12.3704548 121.809134,9.34016202 C123.9829,5.78406082 128.104418,3.91178707 132.212676,4.61416653 C136.320933,5.31654598 139.586335,8.45174489 140.455207,12.5280391 C141.209237,16.0655487 140.026253,19.6918933 137.435875,22.1027833 C138.752334,24.0493676 139.357804,26.4123634 139.117554,28.8064029 C138.937698,30.2747362 138.512103,31.9136196 137.763516,34.020989 C141.54187,29.3207153 147.308627,26.4479488 153.558582,26.4457542 C154.398243,26.4416627 155.235567,26.499306 156.063887,26.6175777 C155.203992,24.3673606 154.744064,21.9722675 154.713953,19.5348837 C154.713953,8.11081003 164.683635,-1.5 176.470543,-1.5 C188.588342,-1.5 196.68639,6.54052574 196.626342,15.301148 C196.629483,16.0146237 196.578546,16.7263036 196.474413,17.430139 C199.13557,17.5012958 201.685654,18.4694318 203.717057,20.1617097 C205.96836,18.4652185 209.147044,17.4271335 211.692556,17.4271434 C213.859331,17.4186292 215.96428,18.0760271 217.730128,19.2928447 C219.561169,17.7393246 221.885034,16.8477373 224.34186,16.7922481 C227.982377,16.7922481 230.915381,18.4354789 232.523449,22.0176367 C236.243063,19.1733112 240.583617,17.5356589 244.473643,17.5356589 C248.093034,17.5356589 251.287079,18.7010872 253.631358,20.7884663 C252.856335,18.7650016 252.987542,16.4361619 254.139416,14.4578754 C256.648027,10.0878369 263.575016,6.95968992 270.417055,6.96031826 C272.439176,7.01886572 274.449101,7.26811561 276.420295,7.70357345 C276.255484,6.39648375 276.436923,5.04699115 276.976327,3.79232876 C278.225666,1.00691739 281.098878,-0.631782946 284.547287,-0.631782946 C292.019285,-0.631782946 297.442042,3.49341546 298.475257,9.81512391 C298.878244,9.73947788 299.290288,9.7006758 299.707103,9.70007356 C301.665268,9.71946702 303.525654,10.557929 304.837106,12.0117122 Z"></path>
                    </g>
                    <path d="M41.9620155,4.34108527 C32.9,4.34108527 26.0465116,11.8457364 26.0465116,19.5348837 C26.0465116,29.3023256 36.7581395,33.7356589 36.7581395,46.6666667 C36.7581395,55.8914729 29.0310078,58.6968992 23.3333333,58.6968992 C17.272093,58.6968992 12.5728682,54.7193798 12.5728682,47.2093023 C12.5728682,40.4100775 16.1,38.1635659 19.448062,38.1635659 C21.7976744,38.1635659 22.796124,40.5131783 22.796124,41.8697674 C22.796124,44.8325581 18.9976744,46.5744186 18.9976744,50.1015504 C18.9976744,53.6286822 20.9891473,55.0775194 24.1527132,55.0775194 C27.3162791,55.0775194 31.3860465,51.8217054 31.3860465,46.0317829 C31.3860465,40.2418605 27.3108527,32.2868217 19.0844961,32.2868217 C10.8581395,32.2868217 4.43333333,38.8689922 4.43333333,47.6868217 C4.43333333,55.9620155 11.2596899,65.5286822 25.0534884,65.5286822 C44.9736434,65.5286822 50.5573643,54.2689922 50.5573643,46.0372093 C50.5573643,30.2573643 36.4488372,24.6302326 36.4488372,17.0062016 C36.4488372,12.0085271 39.8186047,8.86666667 42.9604651,8.86666667 C45.4945736,8.86666667 46.6666667,10.2232558 46.6666667,11.4007752 C46.6666667,13.4356589 44.5883721,15.1992248 44.5883721,17.7333333 C44.6090488,20.4728749 46.8247996,22.6886257 49.5643411,22.7093023 C53.4550388,22.7093023 56.3255814,19.4100775 56.3255814,15.3348837 C56.320155,10.9232558 52.0007752,4.34108527 41.9620155,4.34108527 Z" id="Shape" fill="#FF5352"></path>
                    <path d="M76.0612403,30.1868217 C76.0612403,36.627907 58.9465116,43.2100775 58.9465116,43.2100775 L58.8813953,39.275969 C66.2069767,39.275969 75.0899225,27.7449612 68.5837209,27.7449612 C65.4852713,27.7449612 61.6596899,34.6689922 61.6,39.275969 C61.5348837,44.2844961 62.755814,47.0085271 65.5341085,47.0085271 C72.4527132,47.0085271 82.5620155,37.1054264 82.5620155,37.1054264 C82.5620155,37.1054264 82.6325581,40.9744186 81.6829457,42.2604651 C80.7333333,43.5465116 69.2348837,52.8418605 63.0976744,52.8418605 C59.0984496,52.8418605 53.1294574,51.1488372 53.1294574,41.2457364 C53.1294574,30.3930233 62.4248062,23.4093023 68.7302326,23.4093023 C73.3534884,23.403876 76.0612403,26.1007752 76.0612403,30.1868217 Z" id="Shape" fill="#FF5352"></path>
                    <path d="M251.826357,30.1868217 C251.826357,37.3062016 234.711628,43.6821705 234.711628,43.6821705 L234.646512,39.275969 C241.972093,39.275969 249.796899,27.7449612 244.348837,27.7449612 C241.478295,27.7449612 237.424806,34.6689922 237.365116,39.275969 C237.3,44.2844961 238.52093,47.0085271 241.299225,47.0085271 C248.217829,47.0085271 258.327132,37.1054264 258.327132,37.1054264 C258.327132,37.1054264 258.397674,40.9744186 257.448062,42.2604651 C256.49845,43.5465116 245,52.8418605 238.862791,52.8418605 C234.863566,52.8418605 228.894574,51.1488372 228.894574,41.2457364 C228.894574,30.3930233 238.189922,23.4093023 244.495349,23.4093023 C249.118605,23.403876 251.826357,26.1007752 251.826357,30.1868217 Z" id="Shape" fill="#FF5352"></path>
                    <path d="M274.644186,29.4379845 C274.644186,36.3131783 258.451938,42.8682171 258.451938,42.8682171 L257.323256,38.7333333 C264.648837,38.7333333 272.810078,27.7449612 267.568217,27.7449612 C260.231783,27.7449612 257.936434,47.5511628 264.518605,47.5511628 C271.437209,47.5511628 281.003876,38.1906977 281.003876,38.1906977 C281.003876,38.1906977 281.074419,42.0596899 280.124806,43.3457364 C279.175194,44.6317829 268.762016,52.8418605 262.624806,52.8418605 C258.625581,52.8418605 251.571318,52.0984496 251.571318,41.2457364 C251.571318,30.3930233 261.409302,22.8666667 267.714729,22.8666667 C272.343411,22.8612403 274.644186,25.351938 274.644186,29.4379845 Z" id="Shape" fill="#FF5352"></path>
                    <path d="M86.2356589,23.0186047 C89.1767442,23.0186047 92.0472868,24.7496124 91.7542636,28.3093023 C91.1627907,35.3581395 85.1937984,41.7069767 84.8953488,51.5015504 C84.8897682,51.7337184 84.7370631,51.9365981 84.5155039,52.0062016 C82.9011521,52.5070083 81.228401,52.795225 79.5395349,52.8635659 C77.227907,52.8635659 74.6178295,52.1255814 75.1550388,49.151938 C75.4209302,47.6705426 82.8875969,30.7023256 82.844186,28.2170543 C82.813565,27.0592096 82.0398653,26.0531808 80.9286822,25.7263566 C80.7226584,25.638094 80.5777821,25.4485312 80.5467064,25.2265619 C80.5156307,25.0045925 80.6028797,24.7825322 80.7767442,24.6410853 C82.3742391,23.5266295 84.288795,22.9575915 86.2356589,23.0186047 Z" id="Shape" fill="#FF5352"></path>
                    <path d="M100.024031,22.8612403 C103.686822,22.8612403 105.705426,26.2255814 104.951163,28.5372093 C102.351938,36.4976744 99.0744186,42.8248062 98.303876,48.4790698 C98.1164678,49.6357615 98.1962834,50.8200023 98.5372093,51.9410853 C98.6193532,52.2025415 98.4936505,52.4842087 98.244186,52.5976744 C96.5763184,53.3031391 94.7805638,53.6560086 92.9697674,53.6341085 C89.3992248,53.6341085 89.1713178,50.4596899 89.3992248,48.9782946 C89.7627907,46.3085271 95.2705426,32.9379845 96.0899225,29.644186 C96.3178295,28.7271318 95.7046512,28.3906977 95.0860465,28.5589147 C93.1488372,29.0310078 88.6775194,32.1674419 88.6775194,32.1674419 L89.0844961,28.548062 C89.0844961,28.548062 93.4255814,22.8612403 100.024031,22.8612403 Z" id="Shape" fill="#FF5352"></path>
                    <path d="M114.089147,23.3333333 C117.751938,23.3333333 118.717829,26.5023256 118.500775,28.6565891 C118.066667,32.8945736 113.839535,40.675969 112.23876,44.8542636 C111.354264,47.1658915 111.951163,48.1100775 112.824806,48.1100775 C114.702326,48.1100775 117.616279,45.1689922 121.045736,41.4085271 L119.721705,46.596124 C119.721705,46.596124 114.409302,53.6503876 107.137984,53.6503876 C103.567442,53.6503876 103.024806,50.4922481 103.024806,48.9945736 C103.024806,44.479845 108.483721,34.4899225 110.030233,30.5069767 C110.208751,30.1628906 110.17564,29.7471613 109.944906,29.4356709 C109.714173,29.1241805 109.326135,28.9713591 108.944961,29.0418605 C106.096124,29.3511628 101.217829,33.7953488 101.217829,33.7953488 L102.167442,29.6333333 C102.167442,29.6333333 107.485271,23.3333333 114.089147,23.3333333 Z" id="Shape" fill="#FF5352"></path>
                    <path d="M128.675194,23.3333333 C131.795349,23.3333333 133.558915,26.0465116 133.320155,28.1085271 C132.744961,32.8294574 126.895349,43.9317829 126.027132,47.2744186 C125.560465,49.0705426 125.815504,49.8736434 127.182946,49.244186 C129.017054,48.3976744 130.644961,46.596124 132.066667,44.496124 C132.913178,43.2426357 134.318605,43.5356589 134.318605,45.3100775 C134.318605,48.0937984 129.179845,53.6286822 123.520155,53.6286822 C118.94031,53.6286822 117.350388,50.6550388 117.350388,46.7317829 C117.350388,42.8085271 123.210853,32.2868217 124.605426,28.2170543 C124.94186,27.2403101 124.54031,26.3883721 123.927132,26.3178295 L123.031783,26.2093023 C122.866637,26.1905589 122.725704,26.0813373 122.666345,25.9260919 C122.606987,25.7708464 122.639099,25.5954605 122.749612,25.4713178 C123.471318,24.651938 125.169767,23.3333333 128.675194,23.3333333 Z" id="Shape" fill="#FF5352"></path>
                    <circle id="Oval" fill="#FF5352" cx="130.503876" cy="14.6511628" r="4.35736434"></circle>
                    <path d="M176.470543,4.34108527 C167.403101,4.34108527 160.555039,11.8457364 160.555039,19.5348837 C160.555039,29.3023256 171.266667,33.7356589 171.266667,46.6666667 C171.266667,55.8914729 163.539535,58.6968992 157.84186,58.6968992 C151.78062,58.6968992 147.054264,54.7139535 147.054264,47.2093023 C147.054264,40.4100775 150.581395,38.1635659 153.929457,38.1635659 C156.27907,38.1635659 157.277519,40.5131783 157.277519,41.8697674 C157.277519,44.8325581 153.47907,46.5744186 153.47907,50.1015504 C153.47907,53.6286822 155.470543,55.0775194 158.634109,55.0775194 C161.797674,55.0775194 165.867442,51.8217054 165.867442,46.0317829 C165.867442,40.2418605 161.81938,32.2868217 153.565891,32.2868217 C145.312403,32.2868217 138.914729,38.8689922 138.914729,47.6868217 C138.914729,55.9620155 145.741085,65.5286822 159.534884,65.5286822 C179.455039,65.5286822 185.03876,54.2689922 185.03876,46.0372093 C185.03876,30.2573643 170.930233,25.1023256 170.930233,17.0062016 C170.930233,12.0085271 174.3,8.86666667 177.44186,8.86666667 C179.975969,8.86666667 181.148062,10.2232558 181.148062,11.4007752 C181.148062,13.4356589 179.069767,15.1992248 179.069767,17.7333333 C179.090444,20.4728749 181.306195,22.6886257 184.045736,22.7093023 C187.936434,22.7093023 190.806977,19.4100775 190.806977,15.3348837 C190.828682,10.9232558 186.509302,4.34108527 176.470543,4.34108527 Z" id="Shape" fill="#FF5352"></path>
                    <path d="M196.027132,23.2899225 C199.418605,23.2899225 201.632558,25.596124 201.632558,27.9945736 C201.632558,31.7930233 195.755814,39.7534884 195.755814,45.4511628 C195.755814,49.2930233 197.655039,50.8341085 204.074419,44.2736434 C204.926357,43.4054264 204.573643,46.9 204.573643,46.9 C202.434959,50.522189 198.512708,52.7134253 194.306977,52.6356589 C186.981395,52.6356589 187.203876,45.3968992 187.567442,43.5899225 C188.88062,37.1217054 193.172868,31.1093023 193.172868,29.3457364 C193.212326,28.70552 192.972865,28.0795419 192.516195,27.629113 C192.059525,27.1786842 191.43031,26.9478605 190.790698,26.996124 C189.824806,27.0883721 189.23876,26.3178295 190.052713,25.5472868 C191.767459,24.2033087 193.852087,23.4156565 196.027132,23.2899225 Z" id="Shape" fill="#FF5352"></path>
                    <path d="M211.731008,23.2899225 C215.122481,23.2899225 216.446512,26.127907 216.446512,28.5263566 C216.446512,32.3248062 210.862791,39.7534884 210.862791,45.4511628 C210.862791,47.7248062 212.197674,49.2930233 215.632558,46.672093 C219.637209,43.6224806 225.432558,36.0906977 224.314729,26.051938 C224.17907,24.8418605 228.048062,20.4248062 228.048062,29.6821705 C228.048062,36.1612403 222.713953,52.6410853 209.962016,52.6410853 C203.450388,52.6410853 201.686822,46.579845 202.907752,42.5209302 C204.839535,36.2100775 208.07907,30.8271318 208.594574,29.1395349 C209.066667,27.5821705 208.133333,26.4263566 207.172868,26.3612403 C204.644186,26.1170543 208.811628,23.2899225 211.731008,23.2899225 Z" id="Shape" fill="#FF5352"></path>
                    <path d="M230.348837,37.8162791 C228.313953,37.8162791 222.95814,36.5302326 222.95814,30.4255814 C222.95814,26.8333333 224.314729,26.051938 224.314729,26.051938 L228.048062,29.6821705 C228.048062,24.9666667 227.09845,22.6604651 224.352713,22.6604651 C221.856589,22.6604651 218.86124,25.4062016 218.86124,30.5286822 C218.86124,35.6511628 221.303101,39.9596899 230.35969,39.9596899 C230.348837,39.9542636 232.383721,37.8162791 230.348837,37.8162791 Z" id="Shape" fill="#FF5352"></path>
                    <path d="M284.547287,5.2255814 C288.774419,5.2255814 292.822481,7.05968992 292.822481,12.0790698 C292.822481,19.4046512 285.36124,34.6689922 284.509302,40.8387597 C283.831008,45.7224806 285.155039,48.1860465 287.222481,47.6976744 C290.776744,46.8511628 292.648837,40.3829457 294.662016,41.1046512 C296.078295,41.6093023 295.882946,43.2100775 295.204651,44.7023256 C294.526357,46.1945736 292.084496,52.8418605 283.472868,52.8418605 C274.86124,52.8418605 274.627907,42.8682171 275.729457,38.5271318 C276.342636,36.0852713 283.190698,16.4852713 283.733333,14.0434109 C284.275969,11.6015504 284.075194,9.6372093 282.989922,8.41627907 C281.541085,6.78294574 282.083721,5.2255814 284.547287,5.2255814 Z" id="Shape" fill="#FF5352"></path>
                    <path d="M301.368992,19.1984496 C301.200775,21.6348837 298.590698,25.8457364 293.3,25.8457364 C285.578295,25.8457364 281.432558,21.0325581 272.207752,19.4046512 C268.409302,18.7372093 263.693798,19.2635659 260.812403,19.7248062 C260.211164,19.8309438 259.602979,19.5784897 259.253642,19.0777728 C258.904305,18.5770559 258.877326,17.9191095 259.184496,17.3914729 C260.383721,15.3023256 265.088372,12.8224806 270.351938,12.8224806 C277.748062,12.8224806 287.786822,18.520155 291.786047,18.520155 C294.510155,18.5080691 297.139808,17.5205054 299.19845,15.7364341 C300.012403,15.0581395 301.569767,16.2790698 301.368992,19.1984496 Z" id="Shape" fill="#FF5352"></path>
                </g>
                <g id="shine" transform="translate(26.589147, 7.054264)" fill="#FFFFFF">
                    <path d="M25.9813953,2.74573643 C29.7364341,6.20775194 28.7651163,11.6341085 26.524031,12.920155 C27.8404332,9.61263077 27.6421318,5.89447997 25.9813953,2.74573643 L25.9813953,2.74573643 Z" id="Shape"></path>
                    <path d="M1.62790698,33.355814 C2.91395349,35.5914729 4.62868217,41.8155039 0.20620155,45.1744186 C1.62790698,42.1248062 2.24651163,38.4945736 1.62790698,33.355814 Z" id="Shape"></path>
                    <path d="M16.3496124,23.8108527 C20.0829457,28.9658915 24.896124,40.3612403 17.8418605,49.5860465 C21.3255814,42.7054264 21.1302326,33.3503876 16.3496124,23.8108527 Z" id="Shape"></path>
                    <path d="M160.41938,2.74573643 C164.174419,6.20775194 163.203101,11.6341085 160.962016,12.920155 C162.278418,9.61263077 162.080116,5.89447997 160.41938,2.74573643 L160.41938,2.74573643 Z" id="Shape"></path>
                    <path d="M136.065891,33.355814 C137.351938,35.5914729 139.066667,41.8155039 134.644186,45.1744186 C136.071318,42.1248062 136.684496,38.4945736 136.065891,33.355814 Z" id="Shape"></path>
                    <path d="M150.787597,23.8108527 C154.52093,28.9658915 159.334109,40.3612403 152.279845,49.5860465 C155.736434,42.7108527 155.492248,33.355814 150.787597,23.8108527 Z" id="Shape"></path>
                    <path d="M105.613178,5.15503876 C106.649612,5.63255814 107.783721,8.82325581 105.206202,10.7170543 C106.062427,8.98718017 106.20848,6.9911222 105.613178,5.15503876 L105.613178,5.15503876 Z" id="Shape"></path>
                    <path d="M44.1325581,17.7170543 C46.6743294,18.1818039 48.4683206,20.4720549 48.3108527,23.0511628 C47.5077519,21.2713178 46.9813953,19.8062016 44.1325581,17.7170543 Z" id="Shape"></path>
                    <path d="M59.9883721,17.0062016 C62.5301434,17.4709512 64.3241345,19.7612022 64.1666667,22.3403101 C63.3635659,20.5604651 62.8372093,19.0899225 59.9883721,17.0062016 Z" id="Shape"></path>
                    <path d="M73.103876,17.0062016 C75.5186047,17.0062016 77.8682171,19.0844961 77.2821705,22.3403101 C76.603876,20.1209302 76.0124031,18.7209302 73.103876,17.0062016 Z" id="Shape"></path>
                    <path d="M86.7131783,17.0062016 C89.127907,17.0062016 91.4775194,19.0844961 90.8914729,22.3403101 C90.2131783,20.1209302 89.6271318,18.7209302 86.7131783,17.0062016 Z" id="Shape"></path>
                    <path d="M169.844961,17.575969 C172.25969,17.575969 174.186047,20.0341085 173.372093,22.8178295 C172.845736,20.5496124 172.851163,19.2635659 169.844961,17.575969 Z" id="Shape"></path>
                    <path d="M184.68062,17.7496124 C187.095349,17.7496124 189.157364,19.8713178 188.072093,23.175969 C187.637984,20.9620155 187.589147,19.4697674 184.68062,17.7496124 Z" id="Shape"></path>
                    <path d="M101.793023,17.3643411 C104.207752,17.3643411 106.10155,18.9922481 105.206202,22.155814 C104.522481,19.9364341 104.728682,19.0790698 101.793023,17.3643411 Z" id="Shape"></path>
                    <path d="M33.6434109,36.6984496 C33.920155,39.8782946 35.7,42.5046512 40.6976744,40.9744186 C40.6976744,40.9744186 36.627907,43.0255814 34.7286822,41.2294574 C32.8294574,39.4333333 33.6434109,36.6984496 33.6434109,36.6984496 Z" id="Shape"></path>
                    <path d="M84.151938,38.9341085 C84.1085271,40.5186047 84.3310078,43.0472868 87.4077519,41.6472868 C87.4077519,41.6472868 85.8232558,43.3131783 84.5372093,42.5534884 C83.2511628,41.7937984 84.151938,38.9341085 84.151938,38.9341085 Z" id="Shape"></path>
                    <path d="M98.3527132,40.3341085 C98.3093023,41.9186047 97.9891473,44.4472868 101.065891,43.0472868 C101.065891,43.0472868 99.9100775,44.5124031 98.7379845,43.9534884 C97.3976744,43.3186047 98.3527132,40.3341085 98.3527132,40.3341085 Z" id="Shape"></path>
                    <path d="M168.217054,38.2992248 C168.287597,40.0193798 168.602326,42.3472868 170.637209,42.3255814 C170.637209,42.3255814 168.58062,43.0472868 167.994574,41.6418605 C167.408527,40.2364341 168.217054,38.2992248 168.217054,38.2992248 Z" id="Shape"></path>
                    <path d="M183.215504,37.9410853 C183.286047,39.6612403 183.600775,41.9891473 185.635659,41.9674419 C185.635659,41.9674419 183.660465,42.7162791 183.074419,41.3108527 C182.488372,39.9054264 183.215504,37.9410853 183.215504,37.9410853 Z" id="Shape"></path>
                    <path d="M210.309302,36.6658915 C210.379845,38.3860465 211.736434,41.2348837 215.42093,40.844186 C215.42093,40.844186 211.986047,41.6472868 210.87907,40.4100775 C209.457364,38.8418605 210.309302,36.6658915 210.309302,36.6658915 Z" id="Shape"></path>
                    <path d="M233.610078,37.2085271 C233.68062,38.9286822 235.037209,41.7775194 238.721705,41.3868217 C238.721705,41.3868217 235.324806,42.3364341 234.217829,41.0992248 C232.790698,39.5310078 233.610078,37.2085271 233.610078,37.2085271 Z" id="Shape"></path>
                    <path d="M256.568992,37.7186047 C256.639535,39.4387597 257.149612,42.320155 260.834109,41.9294574 C260.834109,41.9294574 258.283721,42.851938 257.171318,41.6147287 C255.771318,40.0465116 256.568992,37.7186047 256.568992,37.7186047 Z" id="Shape"></path>
                    <path d="M219.946512,17.8635659 C222.488283,18.3283155 224.282274,20.6185665 224.124806,23.1976744 C223.321705,21.4178295 222.795349,19.9472868 219.946512,17.8635659 Z" id="Shape"></path>
                    <path d="M242.693798,17.4891473 C245.23557,17.9538969 247.029561,20.2441479 246.872093,22.8232558 C246.068992,21.0434109 245.542636,19.5782946 242.693798,17.4891473 Z" id="Shape"></path>
                    <path d="M260.611628,0.211627907 C263.153399,0.676377549 264.94739,2.96662856 264.789922,5.54573643 C263.986822,3.76589147 263.460465,2.29534884 260.611628,0.211627907 Z" id="Shape"></path>
                </g>
            </g>
        </g>
    </g>
</svg>