<?xml version="1.0" standalone="no"?>
<!DOCTYPE svg PUBLIC "-//W3C//DTD SVG 20010904//EN"
 "http://www.w3.org/TR/2001/REC-SVG-20010904/DTD/svg10.dtd">
<svg version="1.0" xmlns="http://www.w3.org/2000/svg"
 width="260.000000pt" height="260.000000pt" viewBox="0 0 260.000000 260.000000"
 preserveAspectRatio="xMidYMid meet">
<metadata>
Created by potrace 1.11, written by Peter Selinger 2001-2013
</metadata>
<g transform="translate(0.000000,260.000000) scale(0.100000,-0.100000)"
fill="#000000" stroke="none">
<path d="M1185 2594 c-460 -50 -842 -311 -1045 -714 -93 -186 -134 -360 -134
-580 0 -220 41 -394 134 -580 185 -366 517 -616 926 -696 120 -24 348 -24 468
0 409 80 741 330 926 696 93 186 134 360 134 580 0 225 -41 397 -140 590 -183
359 -518 609 -914 684 -86 17 -283 27 -355 20z m495 -411 c132 -36 221 -107
277 -221 34 -68 38 -84 37 -152 0 -53 -6 -88 -21 -121 -45 -101 -141 -169
-239 -169 l-53 0 36 -52 c89 -133 123 -234 130 -388 4 -86 1 -132 -11 -184
-51 -217 -201 -362 -442 -428 -108 -29 -384 -32 -484 -5 -219 59 -369 197
-425 391 -24 83 -17 258 14 336 50 126 157 234 278 280 66 26 199 38 254 22
l36 -9 -25 61 c-115 283 97 617 418 656 71 8 151 2 220 -17z"/>
<path d="M1399 2072 c-133 -44 -230 -148 -265 -282 -30 -118 -7 -195 115 -383
113 -175 135 -233 135 -367 1 -98 -1 -108 -29 -159 -36 -65 -97 -112 -176
-136 -220 -67 -391 49 -392 265 0 81 17 137 56 179 26 28 76 51 111 51 36 0
76 -39 82 -80 5 -30 -1 -46 -40 -105 -40 -60 -46 -76 -46 -123 0 -46 4 -58 29
-83 29 -28 53 -35 116 -30 108 9 181 141 156 282 -32 186 -169 301 -338 286
-316 -30 -443 -419 -220 -674 46 -52 140 -110 222 -136 96 -30 311 -30 426 1
300 80 446 306 384 594 -26 123 -73 202 -255 428 -74 91 -94 149 -79 220 15
69 57 124 113 145 41 16 50 16 83 3 55 -20 62 -51 29 -123 -30 -66 -33 -115
-9 -155 54 -92 207 -72 257 33 9 20 16 60 16 91 0 104 -65 192 -179 244 -75
34 -220 41 -302 14z"/>
</g>
</svg>
