<svg xmlns="http://www.w3.org/2000/svg" viewBox="0 0 334.39 27.76"><defs><style>.cls-1{fill:#57abd9;}</style></defs><title>subscribe-to-the-newsletter</title><g id="Layer_1" data-name="Layer 1"><path class="cls-1" d="M12.8,5.25c0-1.24-.64-2-1.56-2S8.8,4.13,8.8,6.84c0,5.52,4.24,10,4.24,14.48s-4.16,6.2-7,6.2A6,6,0,0,1,0,21.36C0,19,1,18,2.12,18c1.44,0,2.36,1.24,2.36,2.88,0,1,.16,4.56,2,4.56,1.44,0,2-1.36,2-3.08,0-3.64-4.4-8.8-4.4-13.68C4.08,3.53,7.6,1,10.68,1c4.12,0,5.76,3,5.76,5.32,0,2.12-.8,5.48-3.2,5.48-1.28,0-2-.64-1.6-1.44A13,13,0,0,0,12.8,5.25Z"/><path class="cls-1" d="M32.44,19.44c-.84,1.48-4.64,8-8,8-1.4,0-2-1.12-2-2.88A12.66,12.66,0,0,1,22.6,23c-1.6,2.32-3.84,4.52-6,4.52-1.4,0-2-1.12-2-2.88,0-4.2,2.84-11.88,4-14s4.48-.76,3.84.88c-.36,1-4.84,11.48-2.6,11.48,1,0,3-2.28,3.64-4.44a43.89,43.89,0,0,1,3-7.92c1.2-2.12,4.52-.76,3.88.88-.4,1-4.88,11.48-2.6,11.48,1,0,2.88-2.76,3.76-4.16a.49.49,0,0,1,.88.08A.78.78,0,0,1,32.44,19.44Z"/><path class="cls-1" d="M56.52,19.44c-1.2,2-4.8,8.12-9.92,8h-.4A3.83,3.83,0,0,1,43,25.08c-.28-.48,1-2,1.28-1.56.4.76.88,1.56,1.72,1.56,1.4,0,2-2.36,2-3.6,0-2.08-.12-3.92-.2-5.56A15,15,0,0,1,44,17.68l-.28.92c-2.12,6.2-5.4,8.88-8.12,8.88-4.6,0-5.2-5.8-4-10.32a105.05,105.05,0,0,1,5.64-16c1-2.28,4.64-.72,3.84.88-2,4.08-9.16,22.68-5.48,22.68.84,0,2.32-2.2,3.76-5.84a12.3,12.3,0,0,0,.44-1.28,4.26,4.26,0,0,1-2.48-4c0-2.2,1.72-4.92,4.48-4.92,2.36,0,3.6,2.84,2.64,7.44a14.32,14.32,0,0,0,3.24-1.68,16.8,16.8,0,0,1,.08-2.88c.6-4.28,4.12-7.44,6.16-6,1.68,1.24-.2,4.36-2.6,7.44a40.57,40.57,0,0,1,1,7.64,7.64,7.64,0,0,1-.28,2.24,16.21,16.21,0,0,0,3.52-4.16c.2-.4.72-.28.92.12A.64.64,0,0,1,56.52,19.44ZM40,11.52c-.72-.4-1.32.44-1.32,1.44a3.57,3.57,0,0,0,1.48,3.16C40.76,13.68,40.68,11.84,40,11.52Z"/><path class="cls-1" d="M69.92,18.84a.89.89,0,0,1,0,.64c-1.24,2.08-4.72,8-9.64,8-3,0-5.68-2-5.68-6.08,0-6.84,4.6-12.72,9-12.72a4.46,4.46,0,0,1,4.28,4.6,7.22,7.22,0,0,1-2.4,5.32A1.61,1.61,0,0,1,63,18.36,2.35,2.35,0,0,1,63,15.6a6,6,0,0,0,1.48-3.2.87.87,0,0,0-.76-1C62.2,11.44,59,16.6,59,21.32c0,2,.88,3.36,2.44,3.36,3.36,0,6.72-4.32,7.6-6C69.2,18.32,69.72,18.44,69.92,18.84Z"/><path class="cls-1" d="M82.28,19.44c-.8,1.48-4.64,8-7.92,8-1.4,0-2-1.12-2-2.88,0-3.2,1.64-8.48,3-11.72a3.18,3.18,0,0,1-1.2.16,3.12,3.12,0,0,1-.88-.12,70.86,70.86,0,0,1-3.76,7.28c-.48.72-1.28,0-.92-.68A32.73,32.73,0,0,0,71.8,12a5.28,5.28,0,0,1-1.16-3.24c0-3,2.2-5.76,3.64-5.76.76,0,1.32.92,1.32,2.16,0,1.72-.4,2.92-1.56,5.8a8.87,8.87,0,0,0,3.12-1.2c1.44-.84,3.6.32,3.08,1.68-.36,1-4.84,11.48-2.6,11.48,1,0,2.88-2.76,3.76-4.16a.52.52,0,0,1,.92.08A.65.65,0,0,1,82.28,19.44Z"/><path class="cls-1" d="M87.84,11.44c-.36,1-4.84,11.48-2.6,11.48,1,0,2.88-2.76,3.76-4.16a.52.52,0,0,1,.92.08.65.65,0,0,1,0,.6c-.8,1.48-4.6,8-7.92,8-1.4,0-2-1.12-2-2.88,0-4.2,2.84-11.88,4-14S88.48,9.81,87.84,11.44ZM87,8.13c-1.36,0-1.84-1.68-1.12-3.72S88.24.69,89.6.69s1.88,1.64,1.16,3.72S88.36,8.13,87,8.13Z"/><path class="cls-1" d="M106.55,14.92a16.27,16.27,0,0,1-5.08,2.76c-.08.28-.2.6-.28.92-2.12,6.2-5.4,8.88-8.12,8.88-4.6,0-5.2-5.8-4-10.32a105.05,105.05,0,0,1,5.64-16c1-2.28,4.64-.72,3.84.88-2,4.08-9.16,22.68-5.48,22.68.84,0,2.32-2.2,3.76-5.84a12.3,12.3,0,0,0,.44-1.28,4.26,4.26,0,0,1-2.48-4c0-2.2,1.72-4.92,4.48-4.92,2.36,0,3.6,2.84,2.64,7.44a13.12,13.12,0,0,0,4-2.32.55.55,0,0,1,.88.28A.74.74,0,0,1,106.55,14.92Zm-8.92,1.2c.56-2.44.48-4.28-.16-4.6S96.16,12,96.16,13A3.57,3.57,0,0,0,97.64,16.12Z"/><path class="cls-1" d="M117.76,19.48c-1.24,2.08-4.72,8-9.64,8-3,0-5.68-2-5.68-6.08,0-6.84,4.6-12.72,9-12.72a4.46,4.46,0,0,1,4.28,4.6c0,4.6-4.64,8.28-8.84,6.84,0,.4-.08.8-.08,1.2,0,2,.88,3.36,2.44,3.36,3.36,0,6.72-4.32,7.6-6,.2-.4.72-.28.92.12A.89.89,0,0,1,117.76,19.48Zm-10.52-1.24c2.16.32,5.08-3.16,5.08-5.84a.87.87,0,0,0-.76-1C110.4,11.44,108.16,14.6,107.24,18.24Z"/><path class="cls-1" d="M135.2,2c-.28.92-1.44,3.92-2.8,8l1.72-.24c.88-.12-.08,2.88-1.08,3.36a6.67,6.67,0,0,1-1.72.24c-.32,1.08-.68,2.2-1,3.32-.88,3.08-1.72,6.2-.28,6.2s3.24-2.76,4.12-4.16a.48.48,0,0,1,.88.08.64.64,0,0,1,0,.6c-.84,1.48-4.48,8-8.28,8-1.6,0-2.36-1.12-2.36-2.88,0-2.4,1.2-6,2.12-9,.2-.68.44-1.4.68-2.16-.76,0-1.36,0-1.64-.08-1,0,.08-2.12,1.12-2.32a8.73,8.73,0,0,1,1.36-.24c1.4-4.28,2.84-8.52,3.28-9.6C132.32-1.11,135.72.37,135.2,2Z"/><path class="cls-1" d="M145.71,18.6c-2.08,6.2-5.4,8.88-8.16,8.88s-4.44-1.92-4.44-5.64c0-5.28,2.8-11.16,5.28-12.28a1.67,1.67,0,0,1,1.92,1,4.26,4.26,0,0,1,3.44-1.88C147.79,8.68,146.59,16.28,145.71,18.6ZM142,11.52c-.84-.12-2.68,2-4,5.52-1.12,3.16-1.72,7-.68,7.48s3-2.32,4.32-6C142.76,15.56,143.28,11.72,142,11.52Z"/><path class="cls-1" d="M166.31,2c-.28.92-1.44,3.92-2.8,8l1.72-.24c.88-.12-.08,2.88-1.08,3.36a6.67,6.67,0,0,1-1.72.24c-.32,1.08-.68,2.2-1,3.32-.88,3.08-1.72,6.2-.28,6.2s3.24-2.76,4.12-4.16a.48.48,0,0,1,.88.08.64.64,0,0,1,0,.6c-.84,1.48-4.48,8-8.28,8-1.6,0-2.36-1.12-2.36-2.88,0-2.4,1.2-6,2.12-9,.2-.68.44-1.4.68-2.16-.76,0-1.36,0-1.64-.08-1,0,.08-2.12,1.12-2.32a8.73,8.73,0,0,1,1.36-.24c1.4-4.28,2.84-8.52,3.28-9.6C163.44-1.11,166.83.37,166.31,2Z"/><path class="cls-1" d="M181.11,19.44c-.84,1.48-4.64,8-7.92,8-1.4,0-2-1.12-2-2.88,0-2.4,1.2-6,2.12-9,.28-.84.64-2.52.12-2.52-1.12,0-4,4.48-4.8,7.56v0c-.72,2.8-1.2,5-1.36,6-.28,1.76-3.6.76-3.6-1.8,0-2.2,3.4-15.64,6.8-23.63,1-2.28,4.48-.76,3.84.88-1.36,3.44-2.72,7.64-3.84,11.6,1.52-2.68,3.48-5,5.44-5,2.44,0,2.88,3.08,2.16,5.28-1.16,3.44-3.16,9-1.56,9,1,0,2.88-2.76,3.76-4.16a.48.48,0,0,1,.88.08A.63.63,0,0,1,181.11,19.44Z"/><path class="cls-1" d="M194.55,19.48c-1.24,2.08-4.72,8-9.64,8-3,0-5.68-2-5.68-6.08,0-6.84,4.6-12.72,9-12.72a4.46,4.46,0,0,1,4.28,4.6c0,4.6-4.64,8.28-8.84,6.84,0,.4-.08.8-.08,1.2,0,2,.88,3.36,2.44,3.36,3.36,0,6.72-4.32,7.6-6,.2-.4.72-.28.92.12A.89.89,0,0,1,194.55,19.48ZM184,18.24c2.16.32,5.08-3.16,5.08-5.84a.87.87,0,0,0-.76-1C187.2,11.44,185,14.6,184,18.24Z"/><path class="cls-1" d="M226.75,19.44c-.84,1.48-4.48,8-8.28,8a2.68,2.68,0,0,1-2.76-2.88c0-2.4,3.52-13.44,4.48-16.44.92-2.72,2-5,.4-5-1.88,0-5.32,6.2-6.88,10.24-1.64,5.2-2.76,9.12-3.8,13.24-.44,1.72-4,.72-4-1.8,0-2.2,2.24-8.12,4.92-16.6.84-2.76,1.8-5.56.24-5.56-2.36,0-5.52,6.48-5.52,9.68,0,1.56-3.16,1.12-3.16-2.2,0-2.88,3.36-9.36,8.6-9.36a4.35,4.35,0,0,1,4.64,4.4c1.4-2.44,3.28-4.4,5.72-4.4,3.6,0,4.88,3.68,3.48,8.32-1,3.28-4.52,13.84-3.08,13.84s3.24-2.76,4.12-4.16a.51.51,0,0,1,.92.08A.65.65,0,0,1,226.75,19.44Z"/><path class="cls-1" d="M240.19,19.48c-1.24,2.08-4.72,8-9.64,8-3,0-5.68-2-5.68-6.08,0-6.84,4.6-12.72,9-12.72a4.46,4.46,0,0,1,4.28,4.6c0,4.6-4.64,8.28-8.84,6.84,0,.4-.08.8-.08,1.2,0,2,.88,3.36,2.44,3.36,3.36,0,6.72-4.32,7.6-6,.2-.4.72-.28.92.12A.89.89,0,0,1,240.19,19.48Zm-10.52-1.24c2.16.32,5.08-3.16,5.08-5.84a.87.87,0,0,0-.76-1C232.83,11.44,230.59,14.6,229.67,18.24Z"/><path class="cls-1" d="M271.47,19.44c-1.2,2-4.8,8.12-9.92,8h-.4c-1.68,0-2.64-1.36-3.2-2.4-.28-.48,1-2,1.28-1.56.36.76.88,1.56,1.68,1.56,1.4,0,2-2.36,2-3.6,0-2.12-.12-4-.24-5.68a12.11,12.11,0,0,1-4.32,2.36c-2,4.76-5.16,9.32-8.28,9.32-2.6,0-3.48-2.12-3.4-5.08-1.64,2.48-4,5.08-6.36,5.08-1.4,0-2-1.12-2-2.88,0-4.2,2.84-11.88,4-14s4.48-.76,3.84.88c-.36,1-4.84,11.48-2.6,11.48,1,0,2.72-2,3.48-4a47.16,47.16,0,0,1,2.52-8.4c.92-2.24,5-.76,4.4.88-2.2,6.32-4.4,12.68-3.16,12.68s3-3.12,4.64-6.88a4.18,4.18,0,0,1-.28-1.56c0-2.24,1.2-7,3.88-7a1.33,1.33,0,0,1,1.32,1.48,19.21,19.21,0,0,1-1.32,6.12,20,20,0,0,0,3.52-2.12l0,.16a15.32,15.32,0,0,1,.12-2.76c.56-4.28,4.12-7.44,6.12-6,1.72,1.24-.16,4.36-2.6,7.44a37.18,37.18,0,0,1,1.08,7.64,9.22,9.22,0,0,1-.28,2.24,15.88,15.88,0,0,0,3.48-4.16.51.51,0,0,1,.92.12A.54.54,0,0,1,271.47,19.44Z"/><path class="cls-1" d="M275.39,16.72c-.88,3.08-1.72,6.2-.28,6.2s3.24-2.8,4.08-4.2a.51.51,0,0,1,.92.12.56.56,0,0,1,0,.56c-.84,1.48-4.52,8.08-8.32,8.08-1.6,0-2.36-1.12-2.36-2.88,0-2.4,1.2-6,2.12-9,1.6-5.28,4.2-12.88,4.8-14.4,1-2.28,4.4-.8,3.88.88C279.87,3.41,277.51,9.41,275.39,16.72Z"/><path class="cls-1" d="M293.23,19.48c-1.24,2.08-4.72,8-9.64,8-3,0-5.68-2-5.68-6.08,0-6.84,4.6-12.72,9-12.72a4.46,4.46,0,0,1,4.28,4.6c0,4.6-4.64,8.28-8.84,6.84,0,.4-.08.8-.08,1.2,0,2,.88,3.36,2.44,3.36,3.36,0,6.72-4.32,7.6-6,.2-.4.72-.28.92.12A.89.89,0,0,1,293.23,19.48Zm-10.52-1.24c2.16.32,5.08-3.16,5.08-5.84a.87.87,0,0,0-.76-1C285.87,11.44,283.63,14.6,282.71,18.24Z"/><path class="cls-1" d="M302,2c-.28.92-1.44,3.92-2.8,8l1.72-.24c.88-.12-.08,2.88-1.08,3.36a6.67,6.67,0,0,1-1.72.24c-.32,1.08-.68,2.2-1,3.32-.88,3.08-1.72,6.2-.28,6.2s3.24-2.76,4.12-4.16a.48.48,0,0,1,.88.08.64.64,0,0,1,0,.6c-.84,1.48-4.48,8-8.28,8-1.6,0-2.36-1.12-2.36-2.88,0-2.4,1.2-6,2.12-9,.2-.68.44-1.4.68-2.16-.76,0-1.36,0-1.64-.08-1,0,.08-2.12,1.12-2.32a8.73,8.73,0,0,1,1.36-.24c1.4-4.28,2.84-8.52,3.28-9.6C299.11-1.11,302.51.37,302,2Z"/><path class="cls-1" d="M310.71,2c-.28.92-1.44,3.92-2.8,8l1.72-.24c.88-.12-.08,2.88-1.08,3.36a6.67,6.67,0,0,1-1.72.24c-.32,1.08-.68,2.2-1,3.32-.88,3.08-1.72,6.2-.28,6.2s3.24-2.76,4.12-4.16a.48.48,0,0,1,.88.08.64.64,0,0,1,0,.6c-.84,1.48-4.48,8-8.28,8-1.6,0-2.36-1.12-2.36-2.88,0-2.4,1.2-6,2.12-9,.2-.68.44-1.4.68-2.16-.76,0-1.36,0-1.64-.08-1,0,.08-2.12,1.12-2.32a8.73,8.73,0,0,1,1.36-.24c1.4-4.28,2.84-8.52,3.28-9.6C307.83-1.11,311.23.37,310.71,2Z"/><path class="cls-1" d="M324,19.48c-1.24,2.08-4.72,8-9.64,8-3,0-5.68-2-5.68-6.08,0-6.84,4.6-12.72,9-12.72a4.46,4.46,0,0,1,4.28,4.6c0,4.6-4.64,8.28-8.84,6.84,0,.4-.08.8-.08,1.2,0,2,.88,3.36,2.44,3.36,3.36,0,6.72-4.32,7.6-6,.2-.4.72-.28.92.12A.89.89,0,0,1,324,19.48Zm-10.52-1.24c2.16.32,5.08-3.16,5.08-5.84a.87.87,0,0,0-.76-1C316.59,11.44,314.35,14.6,313.43,18.24Z"/><path class="cls-1" d="M334.31,11.44c-2.76,5.72-4.68,13.44-1.8,13.44.84,0-1.88,2.88-3.44,2.88-2,0-3-1.56-2.56-4.88a56.74,56.74,0,0,1,2.88-10,3.18,3.18,0,0,1-1.2.16,3.12,3.12,0,0,1-.88-.12,70.86,70.86,0,0,1-3.76,7.28c-.48.72-1.28-.12-.92-.76A32,32,0,0,0,325.87,12a5.28,5.28,0,0,1-1.16-3.24c0-3,2.2-5.76,3.64-5.76.76,0,1.32.92,1.32,2.16,0,1.72-.4,2.92-1.56,5.8a8.87,8.87,0,0,0,3.12-1.2C332.67,8.92,334.83,10.08,334.31,11.44Z"/></g></svg>